Coordinates
version=1
nRows=10
nColumns=23
inDegrees=yes

Units are S.I. units (second, meters, Newtons, ...)
If the header above contains a line with 'inDegrees', this indicates whether rotational values are in degrees (yes) or radians (no).

endheader
time	pelvis_tilt	pelvis_list	pelvis_rotation	pelvis_tx	pelvis_ty	pelvis_tz	hip_flexion_r	hip_adduction_r	hip_rotation_r	knee_angle_r	knee_angle_r_beta	ankle_angle_r	subtalar_angle_r	mtp_angle_r	hip_flexion_l	hip_adduction_l	hip_rotation_l	knee_angle_l	knee_angle_l_beta	ankle_angle_l	subtalar_angle_l	mtp_angle_l
     22.50000000	      0.97830433	     -7.88425798	     -5.01543023	      2.29616353	      0.95713646	      1.03567199	     18.86363325	      8.91363669	    -15.41702739	     25.11296460	      0.43830392	      6.40230837	      1.34043971	      0.00000000	     -8.99798054	     -8.58624204	     -8.00297815	     78.47977282	      1.36973043	    -12.69602271	    -18.84713078	      0.00000000
     22.50666667	      1.20324026	     -8.09734216	     -5.14221526	      2.29404051	      0.95253980	      1.03561622	     18.52987929	      9.13659514	    -14.89645582	     27.32719243	      0.47694948	      7.29420437	     -0.57219171	      0.00000000	     -7.21259320	     -9.08919730	     -7.73772587	     82.26531794	      1.43580066	    -12.09674188	    -19.46763907	      0.00000000
     22.51333333	      1.85732139	     -8.48404825	     -5.01323858	      2.29199931	      0.94872837	      1.03519736	     17.61021382	      9.41464803	    -14.61887949	     29.48021136	      0.51452675	      8.68591677	     -1.92681492	      0.00000000	     -5.83638328	     -9.83695585	     -7.30980522	     85.76166532	      1.49682343	    -11.52083452	    -19.86844473	      0.00000000
     22.52000000	      2.30562132	     -8.68756083	     -4.96019633	      2.28967871	      0.94496034	      1.03481410	     16.91213946	      9.55072563	    -14.07981137	     31.70615877	      0.55337686	     10.24516168	     -3.21187911	      0.00000000	     -4.11589535	    -10.38953909	     -6.81217974	     89.06398352	      1.55445976	    -10.89395060	    -19.92283781	      0.00000000
     22.52666667	      1.63140321	     -8.20983500	     -5.28931670	      2.28662663	      0.94004867	      1.03494315	     17.63309505	      9.16875187	    -12.94870912	     34.31433147	      0.59889806	     12.01655325	     -4.64937466	      0.00000000	     -0.91962665	    -10.31416037	     -6.42484853	     92.35902913	      1.61196915	     -9.90762136	    -19.22866184	      0.00000000
     22.53333333	      1.56963102	     -7.87898718	     -5.36353926	      2.28385081	      0.93655491	      1.03467818	     17.39313281	      8.82370310	    -12.04514356	     36.43525837	      0.63591522	     13.99544154	     -5.42363730	      0.00000000	      1.60669392	    -10.32189348	     -5.86801608	     95.15416730	      1.66075352	     -9.27593957	    -18.83687153	      0.00000000
     22.54000000	      1.55335712	     -7.53215404	     -5.32029407	      2.28121108	      0.93375768	      1.03437492	     16.87010529	      8.40742721	    -11.30235524	     38.15495148	      0.66592953	     15.94921248	     -5.79434373	      0.00000000	      4.14913464	    -10.34015591	     -5.21613996	     97.59776037	      1.70340226	     -8.52791559	    -17.99423413	      0.00000000
     22.54666667	      1.68885991	     -7.25974503	     -5.13706599	      2.27882597	      0.93192917	      1.03408100	     15.87901306	      8.02070217	    -10.74540249	     39.34781102	      0.68674886	     17.76325321	     -5.88935030	      0.00000000	      6.55039566	    -10.45853817	     -4.47245234	     99.64316929	      1.73910138	     -7.63755702	    -16.72517342	      0.00000000
     22.55333333	      2.08850418	     -6.97384341	     -4.85150174	      2.27671980	      0.93127498	      1.03369335	     14.30445083	      7.61391970	    -10.19358013	     39.99162065	      0.69798545	     19.38268770	     -6.05098902	      0.00000000	      8.63210924	    -10.48319168	     -3.68558340	    101.17866302	      1.76590080	     -7.07478260	    -15.88272721	      0.00000000
     22.56000000	      1.89265108	     -6.30741565	     -4.55975622	      2.27484741	      0.93041333	      1.03345063	     13.30050626	      6.59639133	    -10.31734145	     40.60726503	      0.70873048	     20.98118978	     -4.84935368	      0.00000000	     11.44007994	    -10.12196309	     -2.93557549	    102.42422808	      1.78764001	     -6.08857978	    -14.28814651	      0.00000000
